<?xml version="1.0" encoding="UTF-8"?>
<svg version="1.1" xmlns="http://www.w3.org/2000/svg" width="1024" height="1024">
<path d="M0 0 C337.92 0 675.84 0 1024 0 C1024 337.92 1024 675.84 1024 1024 C686.08 1024 348.16 1024 0 1024 C0 686.08 0 348.16 0 0 Z " fill="#000B23" transform="translate(0,0)"/>
<path d="M0 0 C0.33 0 0.66 0 1 0 C1.09351973 28.47715616 1.16401673 56.95428925 1.20724869 85.43156815 C1.22785726 98.65462636 1.25594543 111.87758904 1.30175781 125.10058594 C1.34167757 136.62828726 1.3674452 148.15591939 1.37635398 159.68368793 C1.38155997 165.78525787 1.39376075 171.88662989 1.42292023 177.98813629 C1.45017033 183.73696098 1.45842554 189.48550712 1.45243073 195.23439026 C1.45352667 197.33859015 1.46142299 199.44279984 1.4768219 201.54694366 C1.57664083 215.89629868 0.20033314 227.3984863 -7.1875 240 C-7.57695801 240.67587158 -7.96641602 241.35174316 -8.36767578 242.0480957 C-12.10611878 248.40585392 -16.35650986 254.27022387 -21 260 C-21.42007324 260.52158691 -21.84014648 261.04317383 -22.27294922 261.58056641 C-49.97219369 295.79123875 -87.77868622 318.44678513 -131.8730011 323.78982544 C-135.27839396 324.12632159 -138.68264666 324.2011486 -142.1015625 324.23828125 C-142.85206879 324.24812042 -143.60257507 324.25795959 -144.37582397 324.26809692 C-160.91524182 324.44022922 -176.93011205 324.42073642 -193 320 C-193.84804199 319.76925781 -194.69608398 319.53851562 -195.56982422 319.30078125 C-222.5061948 311.69237618 -249.06625069 297.93374931 -269 278 C-269.08871273 274.97022196 -269.1151935 271.96332978 -269.09765625 268.93359375 C-269.0962413 268.02497086 -269.09482635 267.11634796 -269.09336853 266.18019104 C-269.08775193 263.26592779 -269.07519665 260.35174019 -269.0625 257.4375 C-269.05748714 255.46679798 -269.05292386 253.49609476 -269.04882812 251.52539062 C-269.03777711 246.68356441 -269.02050138 241.84179505 -269 237 C-268.24195068 236.64921387 -267.48390137 236.29842773 -266.70288086 235.93701172 C-245.12827819 225.89391462 -224.50277924 214.95330691 -205.3515625 200.6953125 C-203 199 -203 199 -202 199 C-202 227.38 -202 255.76 -202 285 C-200.02 285.66 -198.04 286.32 -196 287 C-192.96269353 288.2115478 -189.9361563 289.44305745 -186.91796875 290.70117188 C-183.24187448 292.20154021 -179.55594115 293.46938811 -175.74707031 294.59594727 C-174.85546204 294.86053238 -173.96385376 295.12511749 -173.04522705 295.39772034 C-172.37030212 295.59647263 -171.6953772 295.79522491 -171 296 C-171.01797496 295.07069388 -171.01797496 295.07069388 -171.03631306 294.12261391 C-171.32400579 279.01468884 -171.53881359 263.90760961 -171.67355824 248.79764748 C-171.7404616 241.4902341 -171.83158182 234.18465403 -171.98071289 226.87841797 C-172.11070924 220.50656763 -172.19425168 214.13604507 -172.22315043 207.76290548 C-172.24003483 204.39066464 -172.27938835 201.02222027 -172.37449074 197.65120316 C-172.9321353 175.44263064 -172.9321353 175.44263064 -168.16700745 170.19221497 C-165.08102542 167.5298107 -161.6617625 165.77669946 -158 164 C-155.65074434 162.22015676 -155.65074434 162.22015676 -153.80078125 160.49609375 C-153.2169165 159.98771973 -152.63305176 159.4793457 -152.03149414 158.95556641 C-151.46422607 158.45460449 -150.89695801 157.95364258 -150.3125 157.4375 C-149.37361938 156.61644775 -149.37361938 156.61644775 -148.41577148 155.77880859 C-143.96956927 151.88159781 -139.56429647 147.93943621 -135.18359375 143.96875 C-133.18262015 142.16465216 -131.1604969 140.38992983 -129.125 138.625 C-122.17463974 132.56281965 -115.28847259 126.38174791 -108.8125 119.8125 C-107.4203125 118.4203125 -107.4203125 118.4203125 -106 117 C-105.67 117 -105.34 117 -105 117 C-105 176.07 -105 235.14 -105 296 C-91.57071798 291.52111562 -91.57071798 291.52111562 -79.25 285.375 C-78.60546875 285.00632812 -77.9609375 284.63765625 -77.296875 284.2578125 C-75.49494632 283.20914909 -73.731568 282.16155764 -72 281 C-70.7257485 280.22359555 -70.7257485 280.22359555 -69.42575455 279.43150616 C-66.64892174 276.64808931 -66.4135223 275.10025946 -66.37037921 271.23866445 C-66.38719155 270.47048334 -66.40400388 269.70230222 -66.42132568 268.9108429 C-66.4193201 268.08889771 -66.41731452 267.26695253 -66.41524816 266.42009991 C-66.41437492 263.66137993 -66.44909233 260.90424202 -66.48339844 258.14575195 C-66.48967937 256.16964804 -66.49363574 254.19353556 -66.49543762 252.21742249 C-66.50359392 247.95895493 -66.52682857 243.70092601 -66.56124115 239.44259071 C-66.61414981 232.7061549 -66.62492286 225.97006301 -66.62823486 219.23344421 C-66.6443812 200.07636604 -66.72220089 180.91969724 -66.83154297 161.76293945 C-66.89154296 151.18481071 -66.91908567 140.60707312 -66.91247773 130.02877206 C-66.91031922 123.3351974 -66.94886235 116.64348656 -67.01782274 109.95028555 C-67.05142346 105.77929553 -67.04738264 101.60896127 -67.03290367 97.43788719 C-67.03374217 95.50813608 -67.04995425 93.57831896 -67.08293343 91.64884949 C-67.31992572 77.06787138 -67.31992572 77.06787138 -64.03903961 71.92784691 C-61.80822168 69.6825058 -59.55113588 67.86151505 -57 66 C-55.90333109 64.82259056 -54.83368931 63.61844203 -53.8125 62.375 C-50.32387012 58.30629349 -46.66673507 54.40733323 -43 50.5 C-38.23444073 45.4128196 -33.52749927 40.30143077 -29 35 C-28.07845711 33.93200501 -27.15654587 32.8643278 -26.234375 31.796875 C-17.76854107 21.9803398 -9.52883438 12.00404862 -1.53125 1.80078125 C-0.77328125 0.90939453 -0.77328125 0.90939453 0 0 Z " fill="#088FFE" transform="translate(666,407)"/>
<path d="M0 0 C0.16488351 8.04533028 -0.35409534 15.98260584 -0.98828125 24 C-1.09257034 25.35129599 -1.19656227 26.70261494 -1.30027771 28.05395508 C-1.57608203 31.63329361 -1.85688477 35.21222285 -2.13890076 38.79107666 C-2.37132898 41.74855574 -2.6007284 44.70626702 -2.83027458 47.66397095 C-4.15275604 64.68948982 -5.50210985 81.71245875 -7.09887695 98.71484375 C-7.94396949 107.80070633 -8.50642522 116.889547 -9 126 C-9.66 126 -10.32 126 -11 126 C-12.28744114 124.54970831 -13.50236776 123.03502843 -14.6875 121.5 C-19.39602271 115.59712031 -24.47437889 110.12410868 -29.68237305 104.66015625 C-32.50948293 101.68682293 -35.26326191 98.72373247 -37.828125 95.51953125 C-38.54484375 94.68808594 -39.2615625 93.85664063 -40 93 C-40.66 93 -41.32 93 -42 93 C-43.86630175 95.34047613 -45.63037181 97.69599811 -47.375 100.125 C-52.80326775 107.53123251 -58.59745114 114.49058803 -64.62890625 121.40673828 C-66.69974754 123.81313256 -68.69256275 126.28057246 -70.6875 128.75 C-74.28755167 133.18333669 -78.03903487 137.44513346 -81.8828125 141.66796875 C-83.78051169 143.75823889 -85.64733415 145.86986115 -87.5 148 C-94.39213062 155.90150444 -101.46228279 163.64216231 -108.59423828 171.32714844 C-110.24388818 173.10477269 -111.89248798 174.88324272 -113.53523254 176.66725159 C-124.63680074 188.7223954 -136.17420339 200.32997894 -147.77270508 211.90307617 C-150.4306234 214.55523875 -153.08394273 217.21195038 -155.73601437 219.86995792 C-157.81300847 221.95058578 -159.89240293 224.02880164 -161.97250557 226.10632133 C-162.95188958 227.08504693 -163.93055557 228.06449166 -164.9084301 229.04472542 C-169.90961512 234.05535395 -174.94339124 238.96156088 -180.32550049 243.56361389 C-182.88911356 245.76268184 -185.34104385 248.07291637 -187.8125 250.375 C-192.43780953 254.64839971 -197.20081901 258.68883729 -202.109375 262.63671875 C-204.74738906 264.79347349 -207.32319756 267.002601 -209.89135742 269.2409668 C-217.67622568 276.01723362 -225.7829051 282.29321502 -234.02490234 288.50097656 C-235.79733119 289.84618214 -237.55318587 291.20871838 -239.30078125 292.5859375 C-289.1740888 331.74947507 -347.41339015 361.54248486 -412 360 C-410.72024671 357.44049342 -409.81190977 357.33416195 -407.1875 356.29296875 C-406.3723291 355.96079346 -405.5571582 355.62861816 -404.71728516 355.28637695 C-403.82058105 354.92374756 -402.92387695 354.56111816 -402 354.1875 C-375.06151975 342.9302172 -349.68097231 328.03708065 -326 311 C-325.25298828 310.46407227 -324.50597656 309.92814453 -323.73632812 309.37597656 C-307.50089415 297.68299556 -292.10057257 285.11392255 -277 272 C-276.24203125 271.34386719 -275.4840625 270.68773437 -274.703125 270.01171875 C-270.22931983 266.11950825 -265.82706976 262.14963051 -261.42578125 258.17578125 C-259.36297212 256.32556437 -257.2828763 254.50055191 -255.1875 252.6875 C-251.02319725 249.06161216 -246.97990044 245.309098 -242.93188477 241.5546875 C-239.52570449 238.39819818 -236.0910706 235.27843186 -232.625 232.1875 C-229.23214242 229.15034523 -225.98688092 226.02009947 -222.80088806 222.76844788 C-221.07535377 221.07399639 -219.29428007 219.5081655 -217.45141602 217.94311523 C-212.20295772 213.37549501 -207.31396411 208.45860047 -202.40234375 203.53515625 C-201.39936097 202.53284919 -200.39622997 201.53069044 -199.39295959 200.52867126 C-197.30290862 198.44008466 -195.21465112 196.34972612 -193.12768555 194.25805664 C-190.4730213 191.5976959 -187.81389116 188.94185158 -185.15338802 186.28733158 C-183.08475051 184.22233394 -181.01853301 182.15492796 -178.95300484 180.0868206 C-177.97427995 179.10743589 -176.99483194 178.12877319 -176.01460075 177.15089607 C-170.9763787 172.12212526 -166.05524062 167.05482488 -161.41841125 161.6519928 C-159.78412233 159.74857196 -158.08613469 157.91769665 -156.3515625 156.10546875 C-155.74344727 155.46577148 -155.13533203 154.82607422 -154.50878906 154.16699219 C-153.57631348 153.18714355 -153.57631348 153.18714355 -152.625 152.1875 C-147.56295674 146.83279574 -142.76261003 141.4049314 -138.171875 135.640625 C-135.71956723 132.65904218 -133.12909919 129.82443205 -130.5 127 C-126.2445874 122.42080601 -122.22676379 117.70712833 -118.3046875 112.8359375 C-116.24196659 110.29774194 -114.14157473 107.80163533 -112.01660156 105.31591797 C-102.90532669 94.6541279 -94.38394144 83.56804681 -85.9375 72.375 C-84.95378418 71.07647095 -84.95378418 71.07647095 -83.95019531 69.75170898 C-83.3362793 68.93387939 -82.72236328 68.1160498 -82.08984375 67.2734375 C-81.54191162 66.54560059 -80.99397949 65.81776367 -80.42944336 65.06787109 C-79.07336138 63.10612654 -78.00526136 61.15895464 -77 59 C-77.51272461 58.62302979 -78.02544922 58.24605957 -78.55371094 57.85766602 C-88.40184553 50.61489887 -98.24122208 43.36291029 -108 36 C-107 34 -107 34 -104.5539093 33.0050354 C-103.462733 32.65484344 -102.3715567 32.30465149 -101.24731445 31.94384766 C-100.00743774 31.54190186 -98.76756104 31.13995605 -97.4901123 30.72583008 C-96.11455435 30.28840941 -94.7389424 29.85115851 -93.36328125 29.4140625 C-91.94181101 28.95644868 -90.52054995 28.49818463 -89.0994873 28.03930664 C-85.29253522 26.81214804 -81.48261506 25.59446258 -77.67200089 24.37873077 C-73.76040189 23.12919001 -69.85145417 21.87140854 -65.94213867 20.61474609 C-57.63022068 17.94487013 -49.31418022 15.28802093 -40.99639893 12.63647461 C-39.12494991 12.03983545 -37.25363234 11.44278403 -35.38232422 10.84570312 C-28.86122177 8.76525706 -22.33851386 6.68999049 -15.8125 4.625 C-15.02831696 4.37679504 -14.24413391 4.12859009 -13.43618774 3.87286377 C-11.29791925 3.19711597 -9.15894014 2.52368986 -7.01953125 1.8515625 C-5.86557861 1.48885254 -4.71162598 1.12614258 -3.52270508 0.75244141 C-1 0 -1 0 0 0 Z " fill="#0F92FD" transform="translate(708,284)"/>
<path d="M0 0 C22.11 0 44.22 0 67 0 C67.2475 7.363125 67.495 14.72625 67.75 22.3125 C67.85924805 24.61387939 67.96849609 26.91525879 68.08105469 29.28637695 C68.50667671 44.76954726 68.50667671 44.76954726 64.41821289 49.80981445 C61.57665924 52.6528907 58.38084373 54.83134402 55 57 C53.62420955 58.16237871 52.26378339 59.34393692 50.9375 60.5625 C50.31359375 61.10261719 49.6896875 61.64273438 49.046875 62.19921875 C46.55925274 64.38775665 44.12646548 66.63239191 41.6875 68.875 C37.1482504 73.01925965 32.46541704 76.92578398 27.68359375 80.78515625 C25.05291443 82.95632827 22.52057576 85.20241357 20 87.5 C6.55078125 99.72460938 6.55078125 99.72460938 0 103 C0 69.01 0 35.02 0 0 Z " fill="#0E90FE" transform="translate(397,464)"/>
<path d="M0 0 C21.78 0 43.56 0 66 0 C66 20 66 20 63.18359375 24.953125 C61.37890625 26.68359375 61.37890625 26.68359375 59.4375 28.25 C58.13378084 29.46318311 56.83039079 30.67672001 55.52734375 31.890625 C54.90585449 32.43396484 54.28436523 32.97730469 53.64404297 33.53710938 C51.74641883 35.22563979 50.11272756 37.03959352 48.5 39 C38.62360409 50.48930851 27.90570011 61.25917561 17.18139648 71.94897461 C15.13989206 73.9849797 13.10396953 76.02646274 11.06835938 78.06835938 C9.76855077 79.36750935 8.46843318 80.66635027 7.16796875 81.96484375 C6.25726875 82.87858009 6.25726875 82.87858009 5.32817078 83.81077576 C1.11503321 88 1.11503321 88 0 88 C0 58.96 0 29.92 0 0 Z " fill="#1294FE" transform="translate(495,391)"/>
<path d="M0 0 C22.11 0 44.22 0 67 0 C67 15.18 67 30.36 67 46 C66.34 46 65.68 46 65 46 C65 31.48 65 16.96 65 2 C44.21 2 23.42 2 2 2 C1.9709107 18.56054517 1.9709107 18.56054517 1.95117188 35.12109375 C1.94519577 41.87614732 1.93812833 48.63118733 1.92456055 55.38623047 C1.91368964 60.83269779 1.90771423 66.27915056 1.90512276 71.7256279 C1.9032761 73.8028219 1.89967006 75.88001511 1.89426994 77.95720291 C1.88700378 80.8681332 1.88601142 83.77900349 1.88647461 86.68994141 C1.88287933 87.54733917 1.87928406 88.40473694 1.87557983 89.28811646 C1.88306711 93.64093899 2.12624103 97.71346071 3 102 C1.515 102.495 1.515 102.495 0 103 C0 69.01 0 35.02 0 0 Z " fill="#0C9CFB" transform="translate(397,464)"/>
<path d="M0 0 C0 3 0 3 -1.36108398 4.62231445 C-1.98313721 5.1968335 -2.60519043 5.77135254 -3.24609375 6.36328125 C-3.91833984 7.00330078 -4.59058594 7.64332031 -5.28320312 8.30273438 C-6.71147375 9.63518267 -8.14373387 10.96336823 -9.58007812 12.28710938 C-13.76994462 16.24349913 -13.76994462 16.24349913 -15.97265625 21.48046875 C-15.98167969 22.31191406 -15.99070312 23.14335937 -16 24 C-16.886875 24.20625 -17.77375 24.4125 -18.6875 24.625 C-22.92278682 26.38304358 -24.30493333 28.35373333 -27 32 C-27.99 31.67 -28.98 31.34 -30 31 C-24.33425951 24.07189276 -17.96966361 17.85795858 -11.625 11.5625 C-10.49586045 10.43838533 -9.36695222 9.31403826 -8.23828125 8.18945312 C-5.49484812 5.45694765 -2.74830015 2.72760991 0 0 Z " fill="#050918" transform="translate(535,439)"/>
<path d="M0 0 C-0.99 0.495 -0.99 0.495 -2 1 C-2.33 1.99 -2.66 2.98 -3 4 C-4.65 3.67 -6.3 3.34 -8 3 C-8.33 4.32 -8.66 5.64 -9 7 C-6.03 9.31 -3.06 11.62 0 14 C-4.0744433 14 -6.11745033 11.90830751 -9.1875 9.5 C-9.74630859 9.07074219 -10.30511719 8.64148438 -10.88085938 8.19921875 C-12.25885847 7.13921945 -13.63009407 6.07043812 -15 5 C-14 3 -14 3 -12.109375 2.1484375 C-4.28930818 -0.41509434 -4.28930818 -0.41509434 0 0 Z " fill="#149EEE" transform="translate(615,315)"/>
<path d="M0 0 C0.66 0.33 1.32 0.66 2 1 C0.625 2.5 0.625 2.5 -1 4 C-1.66 4 -2.32 4 -3 4 C-3.2475 4.61875 -3.495 5.2375 -3.75 5.875 C-5.26029304 8.44249816 -6.36091208 8.71815729 -9 10 C-10.175625 11.2375 -10.175625 11.2375 -11.375 12.5 C-14.19794233 15.1885165 -16.26671249 16.04497296 -20 17 C-16.64184608 13.55042629 -13.17876604 10.40339616 -9.4375 7.375 C-8.50808594 6.61960937 -7.57867187 5.86421875 -6.62109375 5.0859375 C-4.44040125 3.35048326 -2.24130257 1.65592707 0 0 Z " fill="#060A19" transform="translate(485,563)"/>
<path d="M0 0 C-5.92190953 2.96095477 -11.89436206 4.96547824 -18.25 6.75 C-19.03036621 6.97260498 -19.81073242 7.19520996 -20.61474609 7.42456055 C-24.49694614 8.48610613 -27.93470769 9.29270105 -32 9 C-28.46410262 7.0326586 -24.82060602 5.97745912 -20.9375 4.875 C-19.70902344 4.52179687 -18.48054688 4.16859375 -17.21484375 3.8046875 C-14 3 -14 3 -11 3 C-11 2.34 -11 1.68 -11 1 C-9.5437328 0.63743142 -8.08488815 0.28520207 -6.625 -0.0625 C-5.81289063 -0.25972656 -5.00078125 -0.45695313 -4.1640625 -0.66015625 C-2 -1 -2 -1 0 0 Z " fill="#06A5F8" transform="translate(376,630)"/>
<path d="M0 0 C1.63001953 0.15275391 1.63001953 0.15275391 3.29296875 0.30859375 C4.54013672 0.43427734 4.54013672 0.43427734 5.8125 0.5625 C5.4825 1.2225 5.1525 1.8825 4.8125 2.5625 C-0.1375 2.5625 -5.0875 2.5625 -10.1875 2.5625 C-8.11373047 -1.58503906 -3.97508558 -0.3846857 0 0 Z " fill="#069BF2" transform="translate(306.1875,641.4375)"/>
<path d="M0 0 C0.33 0.66 0.66 1.32 1 2 C-6.29840547 10.44646925 -6.29840547 10.44646925 -10 14 C-9.46823005 9.86186295 -7.22067834 7.72917682 -4.4375 4.75 C-3.61121094 3.85796875 -2.78492188 2.9659375 -1.93359375 2.046875 C-1.29550781 1.37140625 -0.65742187 0.6959375 0 0 Z " fill="#109FF7" transform="translate(662,413)"/>
<path d="M0 0 C0.33 0.66 0.66 1.32 1 2 C-0.87577357 6.06417607 -2.93582393 8.12422643 -7 10 C-7.66 9.67 -8.32 9.34 -9 9 C-6.03 6.03 -3.06 3.06 0 0 Z " fill="#061831" transform="translate(562,493)"/>
<path d="M0 0 C0.66 0.33 1.32 0.66 2 1 C1.52949219 1.45890625 1.05898438 1.9178125 0.57421875 2.390625 C-3.33094414 6.22585692 -3.33094414 6.22585692 -6.8125 10.4375 C-7.4003125 11.2109375 -7.4003125 11.2109375 -8 12 C-8.66 12 -9.32 12 -10 12 C-8.52278578 8.54798361 -6.56205999 6.35038064 -3.875 3.75 C-3.15054688 3.04359375 -2.42609375 2.3371875 -1.6796875 1.609375 C-1.12539063 1.07828125 -0.57109375 0.5471875 0 0 Z " fill="#10A2F6" transform="translate(554,438)"/>
<path d="M0 0 C0.66 0.33 1.32 0.66 2 1 C0.95285076 2.32477959 -0.11344669 3.63443746 -1.1875 4.9375 C-1.77917969 5.66839844 -2.37085938 6.39929688 -2.98046875 7.15234375 C-5.32505203 9.29738803 -6.88391498 9.66094412 -10 10 C-7.02911382 6.00073014 -3.87051275 3.07881696 0 0 Z " fill="#050813" transform="translate(437,533)"/>
<path d="M0 0 C0 4.35251187 -2.06165511 5.92809398 -5 9 C-7.171875 9.6796875 -7.171875 9.6796875 -9 10 C-8.06409496 8.8944811 -7.12620142 7.79064547 -6.1875 6.6875 C-5.66542969 6.07261719 -5.14335938 5.45773437 -4.60546875 4.82421875 C-3.12827531 3.14575321 -1.59960869 1.56117966 0 0 Z " fill="#0D98EE" transform="translate(525,468)"/>
<path d="M0 0 C-1.4562545 0.67119549 -2.91507867 1.33681807 -4.375 2 C-5.59316406 2.556875 -5.59316406 2.556875 -6.8359375 3.125 C-9 4 -9 4 -11 4 C-11 3.01 -11 2.02 -11 1 C-9.5437328 0.63743142 -8.08488815 0.28520207 -6.625 -0.0625 C-5.40683594 -0.35833984 -5.40683594 -0.35833984 -4.1640625 -0.66015625 C-2 -1 -2 -1 0 0 Z " fill="#049BF2" transform="translate(376,630)"/>
<path d="M0 0 C0 3.38023517 -0.87455622 5.83468937 -2 9 C-2.33 8.34 -2.66 7.68 -3 7 C-4.32 7.33 -5.64 7.66 -7 8 C-6.02133662 6.85373678 -5.04205413 5.70800212 -4.0625 4.5625 C-3.51722656 3.92441406 -2.97195313 3.28632813 -2.41015625 2.62890625 C-1.63204305 1.73008851 -0.84063472 0.84063472 0 0 Z " fill="#051731" transform="translate(570,485)"/>
<path d="M0 0 C0.66 0.33 1.32 0.66 2 1 C1.67 2.32 1.34 3.64 1 5 C-0.32 4.34 -1.64 3.68 -3 3 C-2.01 2.01 -1.02 1.02 0 0 Z " fill="#05122B" transform="translate(574,481)"/>
<path d="M0 0 C-1.49097658 3.7952131 -3.75700849 5.61042731 -7 8 C-7.66 7.67 -8.32 7.34 -9 7 C-7.88121617 5.82737096 -6.75476949 4.66204862 -5.625 3.5 C-4.68527344 2.52546875 -4.68527344 2.52546875 -3.7265625 1.53125 C-2 0 -2 0 0 0 Z " fill="#040715" transform="translate(617,438)"/>
<path d="M0 0 C-4.30769231 3.07692308 -4.30769231 3.07692308 -7.8125 2.6875 C-8.534375 2.460625 -9.25625 2.23375 -10 2 C-6.19832777 -0.53444815 -4.31588991 -1.33941411 0 0 Z " fill="#169FF4" transform="translate(661,301)"/>
<path d="M0 0 C0.99 0.66 1.98 1.32 3 2 C0.1875 4.0625 0.1875 4.0625 -3 6 C-3.99 5.67 -4.98 5.34 -6 5 C-4.02 3.35 -2.04 1.7 0 0 Z " fill="#060A17" transform="translate(587,689)"/>
<path d="M0 0 C0.33 0 0.66 0 1 0 C1 2.97 1 5.94 1 9 C0.01 9.495 0.01 9.495 -1 10 C-1.9765625 3.9453125 -1.9765625 3.9453125 -2 2 C-1.34 1.34 -0.68 0.68 0 0 Z " fill="#05122B" transform="translate(709,292)"/>
<path d="M0 0 C0.33 0.66 0.66 1.32 1 2 C0.01 3.32 -0.98 4.64 -2 6 C-3.32 5.67 -4.64 5.34 -6 5 C-4.02 3.35 -2.04 1.7 0 0 Z " fill="#0D95ED" transform="translate(490,503)"/>
<path d="M0 0 C0.66 1.32 1.32 2.64 2 4 C0.02 4.99 -1.96 5.98 -4 7 C-2.92598892 4.08482708 -2.22189824 2.22189824 0 0 Z " fill="#169FF9" transform="translate(630,346)"/>
<path d="M0 0 C-1.0625 1.5625 -1.0625 1.5625 -3 3 C-6.6875 2.6875 -6.6875 2.6875 -10 2 C-6.3558226 -0.4294516 -4.28758728 -0.16179575 0 0 Z " fill="#050A17" transform="translate(342,641)"/>
</svg>
